<svg width="135" height="28" viewBox="0 0 135 28" fill="none" xmlns="http://www.w3.org/2000/svg">
<path d="M6.8 21.84V16.88H16.8V10.8H6.8V6.16H17.8V-1.90735e-06H0.4V28H18V21.84H6.8ZM39.8016 28H46.8016L37.2816 -1.90735e-06H29.1216L19.6016 28H26.6016L28.0016 23.6H38.4016L39.8016 28ZM29.9216 17.6L33.2016 7.32L36.4816 17.6H29.9216ZM65.9969 -1.90735e-06H45.1969V6.16H52.3969V28H58.7969V6.16H65.9969V-1.90735e-06ZM71.9984 26V14.88H84.7984V12.88H71.9984V2H85.7984V-1.90735e-06H69.8784V28H85.9984V26H71.9984ZM108.887 28H111.327L104.367 16.24C107.927 15.28 110.527 12.08 110.527 8.28C110.527 3.72 106.807 -1.90735e-06 102.247 -1.90735e-06H91.2066V28H93.3266V16.52H102.167L108.887 28ZM93.3266 2H102.247C105.647 2 108.407 4.8 108.407 8.28C108.407 11.72 105.647 14.52 102.247 14.52H93.3266V2ZM134.397 -1.90735e-06H131.997L123.157 14.44L114.277 -1.90735e-06H111.877L122.077 16.48V28H124.197V16.48L134.397 -1.90735e-06Z" fill="black"/>
</svg>
